<?xml version="1.0" encoding="UTF-8"?>
<svg xmlns="http://www.w3.org/2000/svg" xmlns:xlink="http://www.w3.org/1999/xlink" width="16px" height="16px" viewBox="0 0 16 16" version="1.1">
<g id="surface1">
<path style=" stroke:none;fill-rule:nonzero;fill:rgb(81.960784%,82.352941%,82.745098%);fill-opacity:1;" d="M 10.722656 5.304688 C 10.765625 4.160156 10.476562 3.699219 10.257812 3.371094 C 10.039062 3.0625 9.511719 2.578125 8.863281 2.558594 C 8.25 2.539062 8.105469 2.878906 7.539062 2.898438 C 7.445312 1.867188 8.222656 1.304688 8.222656 1.304688 C 8.222656 1.304688 8.011719 1.003906 7.835938 0.929688 C 7.632812 1.109375 7.148438 1.625 7.042969 2.320312 C 6.933594 1.296875 6.425781 0.644531 5.292969 0.191406 C 4.972656 1.316406 6.03125 2.363281 6.722656 2.78125 C 6.355469 2.65625 6.039062 2.496094 5.613281 2.578125 C 4.867188 2.726562 4.253906 3.175781 3.90625 4.164062 C 3.554688 5.152344 4.027344 6.300781 4.132812 6.632812 C 4.234375 6.960938 4.996094 8.359375 5.59375 8.566406 C 6.1875 8.773438 6.191406 8.679688 6.507812 8.554688 C 6.828125 8.433594 7.3125 8.207031 8.019531 8.464844 C 8.730469 8.71875 8.824219 8.78125 9.265625 8.492188 C 9.707031 8.207031 10.285156 7.3125 10.417969 7.054688 C 10.550781 6.796875 10.625 6.664062 10.664062 6.527344 C 10.714844 6.136719 10.679688 6.328125 10.722656 5.304688 "/>
<path style=" stroke:none;fill-rule:nonzero;fill:rgb(99.607843%,99.607843%,99.607843%);fill-opacity:1;" d="M 10.761719 6.886719 L 10.761719 7.445312 C 10.761719 7.574219 10.871094 7.679688 11 7.679688 L 11.878906 7.679688 C 12.164062 7.679688 12.433594 7.792969 12.632812 7.992188 C 12.835938 8.195312 12.945312 8.464844 12.945312 8.746094 L 12.945312 11.324219 C 12.945312 11.355469 12.945312 11.382812 12.945312 11.410156 L 12.945312 11.992188 C 12.945312 12.019531 12.945312 12.042969 12.945312 12.070312 L 12.945312 12.375 C 12.945312 12.398438 12.945312 12.425781 12.945312 12.449219 L 12.945312 12.589844 C 12.945312 12.875 12.832031 13.144531 12.632812 13.34375 C 12.433594 13.546875 12.160156 13.65625 11.875 13.65625 C 11.578125 13.65625 11.265625 13.65625 11.003906 13.652344 C 10.941406 13.652344 10.878906 13.675781 10.835938 13.71875 C 10.789062 13.765625 10.761719 13.824219 10.761719 13.890625 L 10.761719 14.171875 C 10.761719 14.183594 10.761719 14.195312 10.761719 14.207031 L 10.761719 14.347656 C 10.761719 14.359375 10.761719 14.371094 10.761719 14.382812 L 10.761719 14.453125 C 10.761719 14.652344 10.761719 14.839844 10.761719 14.953125 C 10.761719 15.023438 10.730469 15.089844 10.675781 15.132812 C 10.40625 15.339844 9.457031 15.792969 7.332031 15.792969 C 5.253906 15.792969 4.265625 15.453125 3.957031 15.273438 C 3.886719 15.230469 3.847656 15.15625 3.847656 15.074219 C 3.84375 14.613281 3.839844 12.972656 3.835938 11.28125 L 3.835938 11.050781 C 3.832031 9.082031 3.828125 7.117188 3.828125 6.902344 L 3.828125 6.886719 Z M 11.816406 8.628906 L 11.058594 8.628906 C 10.988281 8.628906 10.914062 8.65625 10.863281 8.707031 L 10.851562 8.71875 C 10.796875 8.769531 10.769531 8.839844 10.765625 8.910156 L 10.761719 8.925781 L 10.761719 12.375 C 10.761719 12.449219 10.789062 12.519531 10.839844 12.574219 L 10.851562 12.585938 C 10.902344 12.636719 10.972656 12.667969 11.042969 12.671875 L 11.816406 12.671875 C 11.886719 12.671875 11.957031 12.644531 12.011719 12.59375 L 12.023438 12.585938 C 12.074219 12.53125 12.105469 12.464844 12.109375 12.390625 L 12.109375 8.925781 C 12.109375 8.851562 12.082031 8.78125 12.035156 8.730469 L 12.023438 8.71875 C 11.972656 8.664062 11.902344 8.636719 11.832031 8.632812 Z M 11.816406 8.628906 "/>
<path style=" stroke:none;fill-rule:nonzero;fill:rgb(98.039216%,68.627451%,25.490196%);fill-opacity:1;" d="M 4.511719 6.816406 L 4.511719 14.164062 C 4.511719 14.25 4.558594 14.328125 4.628906 14.371094 C 4.929688 14.511719 5.800781 14.851562 7.324219 14.851562 C 8.863281 14.851562 9.707031 14.4375 9.988281 14.269531 C 10.054688 14.222656 10.097656 14.148438 10.097656 14.070312 C 10.097656 13.09375 10.097656 6.816406 10.097656 6.816406 Z M 4.511719 6.816406 "/>
<path style=" stroke:none;fill-rule:nonzero;fill:rgb(100%,85.490196%,58.431373%);fill-opacity:1;" d="M 5.332031 7.730469 C 5.507812 7.730469 5.652344 7.867188 5.660156 8.042969 L 5.660156 13.738281 C 5.660156 13.921875 5.515625 14.066406 5.332031 14.066406 C 5.15625 14.066406 5.015625 13.929688 5.003906 13.757812 L 5.003906 8.0625 C 5.003906 7.878906 5.152344 7.730469 5.332031 7.730469 "/>
<path style=" stroke:none;fill-rule:nonzero;fill:rgb(99.607843%,99.607843%,99.607843%);fill-opacity:1;" d="M 8.488281 8.324219 C 8.488281 8.207031 8.417969 8.0625 8.304688 7.992188 C 8.117188 7.878906 7.972656 7.707031 7.894531 7.5 C 6.375 7.550781 4.992188 7.285156 4.296875 7.097656 C 4.117188 7.046875 3.933594 7.003906 3.75 6.972656 C 3.335938 6.890625 3.015625 6.523438 3.015625 6.082031 C 3.015625 5.597656 3.402344 5.203125 3.882812 5.183594 C 3.976562 4.671875 4.421875 4.28125 4.960938 4.28125 C 5.570312 4.28125 6.0625 4.773438 6.0625 5.382812 C 6.0625 5.507812 6.039062 5.632812 6 5.746094 C 6.136719 5.324219 6.535156 5.015625 7.003906 5.015625 C 7.46875 5.015625 7.863281 5.320312 8 5.738281 C 7.996094 5.699219 7.996094 5.664062 7.996094 5.625 C 7.996094 4.992188 8.507812 4.480469 9.136719 4.480469 C 9.648438 4.480469 10.082031 4.816406 10.226562 5.277344 L 10.328125 5.253906 C 10.457031 5.179688 10.609375 5.136719 10.769531 5.136719 C 11.265625 5.136719 11.667969 5.539062 11.664062 6.035156 C 11.664062 6.488281 11.328125 6.863281 10.890625 6.925781 C 10.792969 6.9375 10.695312 6.964844 10.601562 7 C 10.339844 7.097656 10.074219 7.179688 9.804688 7.246094 C 9.792969 7.378906 9.753906 7.503906 9.691406 7.613281 C 9.582031 7.820312 9.535156 8.050781 9.550781 8.28125 C 9.550781 8.296875 9.550781 8.371094 9.550781 8.382812 C 9.550781 8.675781 9.3125 8.855469 9.019531 8.855469 C 8.726562 8.855469 8.488281 8.617188 8.488281 8.324219 "/>
<path style=" stroke:none;fill-rule:nonzero;fill:rgb(0.392157%,0.784314%,0.784314%);fill-opacity:1;" d="M 8.273438 7.027344 L 8.28125 7.046875 L 8.28125 7.027344 Z M 8.273438 7.027344 "/>
<path style=" stroke:none;fill-rule:nonzero;fill:rgb(0.392157%,0.784314%,0.784314%);fill-opacity:1;" d="M 5.199219 0 L 5.34375 0.0585938 C 6.285156 0.4375 6.832031 0.957031 7.070312 1.71875 C 7.21875 1.386719 7.445312 1.09375 7.710938 0.851562 L 7.808594 0.765625 L 7.890625 0.800781 C 7.925781 0.8125 7.960938 0.835938 7.996094 0.859375 C 8.050781 0.898438 8.109375 0.949219 8.164062 1.011719 C 8.207031 1.058594 8.25 1.105469 8.289062 1.15625 L 8.308594 1.183594 L 8.332031 1.214844 L 8.417969 1.335938 L 8.304688 1.417969 L 8.289062 1.429688 L 8.269531 1.449219 L 8.242188 1.472656 L 8.210938 1.5 C 8.136719 1.570312 8.0625 1.65625 7.992188 1.753906 C 7.796875 2.027344 7.679688 2.34375 7.671875 2.703125 L 7.671875 2.742188 L 7.703125 2.738281 C 7.808594 2.71875 7.910156 2.683594 8.054688 2.617188 L 8.136719 2.578125 C 8.417969 2.453125 8.585938 2.40625 8.867188 2.417969 C 9.46875 2.433594 10.042969 2.824219 10.378906 3.292969 C 10.386719 3.304688 10.394531 3.316406 10.398438 3.324219 L 10.445312 3.394531 L 10.484375 3.460938 C 10.742188 3.898438 10.863281 4.320312 10.867188 5 C 11.394531 5.050781 11.808594 5.492188 11.808594 6.035156 C 11.808594 6.554688 11.421875 6.996094 10.910156 7.066406 C 10.910156 7.066406 10.90625 7.066406 10.90625 7.066406 L 10.90625 7.445312 C 10.90625 7.496094 10.949219 7.539062 11 7.539062 L 11.878906 7.539062 C 12.199219 7.539062 12.507812 7.667969 12.734375 7.894531 C 12.960938 8.121094 13.089844 8.425781 13.089844 8.746094 L 13.089844 12.589844 C 13.089844 12.910156 12.960938 13.21875 12.734375 13.445312 C 12.503906 13.671875 12.195312 13.800781 11.875 13.796875 C 11.832031 13.796875 11.785156 13.796875 11.742188 13.796875 L 11.171875 13.796875 L 11.003906 13.792969 C 10.976562 13.792969 10.953125 13.804688 10.933594 13.820312 C 10.914062 13.839844 10.90625 13.863281 10.90625 13.890625 L 10.90625 14.667969 L 10.902344 14.953125 C 10.902344 15.0625 10.855469 15.171875 10.761719 15.246094 C 10.632812 15.34375 10.460938 15.4375 10.25 15.519531 L 10.175781 15.546875 C 10.066406 15.589844 9.945312 15.628906 9.8125 15.664062 L 9.722656 15.6875 L 9.632812 15.707031 C 9.539062 15.730469 9.441406 15.75 9.339844 15.769531 L 9.128906 15.808594 C 9.039062 15.820312 8.945312 15.835938 8.847656 15.847656 L 8.730469 15.863281 L 8.613281 15.875 L 8.363281 15.898438 L 8.105469 15.914062 C 8.082031 15.914062 8.058594 15.917969 8.039062 15.917969 L 7.902344 15.925781 L 7.765625 15.929688 C 7.71875 15.929688 7.671875 15.929688 7.625 15.933594 L 7.480469 15.933594 C 7.429688 15.933594 7.382812 15.933594 7.332031 15.933594 L 7.257812 15.933594 C 7.207031 15.933594 7.160156 15.933594 7.109375 15.933594 L 6.964844 15.933594 L 6.824219 15.929688 C 6.777344 15.925781 6.730469 15.925781 6.683594 15.925781 L 6.546875 15.917969 C 6.523438 15.917969 6.5 15.917969 6.480469 15.914062 L 6.347656 15.90625 L 6.089844 15.890625 C 6.070312 15.890625 6.046875 15.886719 6.027344 15.886719 L 5.90625 15.875 C 5.886719 15.871094 5.863281 15.871094 5.84375 15.867188 L 5.726562 15.855469 L 5.613281 15.84375 C 5.59375 15.84375 5.574219 15.839844 5.554688 15.835938 L 5.445312 15.824219 L 5.335938 15.808594 L 5.230469 15.792969 C 5.179688 15.785156 5.128906 15.777344 5.078125 15.765625 L 4.984375 15.75 C 4.96875 15.746094 4.949219 15.742188 4.933594 15.738281 L 4.84375 15.722656 L 4.753906 15.703125 L 4.667969 15.679688 L 4.582031 15.660156 C 4.5 15.640625 4.425781 15.617188 4.351562 15.59375 L 4.28125 15.570312 C 4.246094 15.558594 4.214844 15.546875 4.183594 15.535156 L 4.121094 15.511719 C 4.027344 15.472656 3.949219 15.433594 3.878906 15.394531 C 3.769531 15.324219 3.703125 15.203125 3.703125 15.074219 L 3.6875 7.101562 C 3.214844 6.992188 2.875 6.570312 2.875 6.082031 C 2.875 5.605469 3.199219 5.203125 3.640625 5.082031 C 3.632812 4.933594 3.636719 4.792969 3.652344 4.652344 C 3.671875 4.464844 3.710938 4.285156 3.773438 4.117188 C 4.117188 3.144531 4.726562 2.609375 5.585938 2.4375 C 5.738281 2.410156 5.878906 2.40625 6.027344 2.425781 C 5.914062 2.320312 5.808594 2.210938 5.710938 2.09375 C 5.195312 1.480469 4.96875 0.808594 5.15625 0.152344 Z M 10.621094 7.144531 L 10.554688 7.167969 C 10.539062 7.171875 10.523438 7.175781 10.507812 7.183594 C 10.375 7.230469 10.238281 7.273438 10.101562 7.3125 C 10.015625 7.335938 10.015625 7.335938 9.933594 7.359375 L 9.925781 7.390625 C 9.90625 7.480469 9.878906 7.5625 9.839844 7.640625 L 9.800781 7.714844 C 9.792969 7.730469 9.789062 7.746094 9.78125 7.757812 C 9.710938 7.921875 9.679688 8.097656 9.695312 8.28125 L 9.695312 8.382812 C 9.695312 8.75 9.402344 8.996094 9.019531 8.996094 C 8.828125 8.996094 8.652344 8.914062 8.53125 8.785156 C 8.441406 8.691406 8.378906 8.570312 8.355469 8.433594 C 8.351562 8.398438 8.347656 8.363281 8.347656 8.324219 C 8.347656 8.25 8.296875 8.15625 8.230469 8.113281 C 8.050781 8.003906 7.902344 7.84375 7.804688 7.65625 L 7.800781 7.644531 L 7.707031 7.648438 C 6.632812 7.667969 5.535156 7.535156 4.636719 7.328125 C 4.53125 7.304688 4.429688 7.28125 4.332031 7.253906 L 4.257812 7.234375 C 4.253906 7.234375 4.253906 7.234375 4.25 7.234375 C 4.15625 7.207031 4.0625 7.183594 3.972656 7.160156 L 3.988281 15.074219 C 3.988281 15.109375 4.003906 15.136719 4.027344 15.152344 C 4.066406 15.175781 4.113281 15.199219 4.164062 15.222656 L 4.21875 15.246094 C 4.273438 15.269531 4.332031 15.289062 4.398438 15.3125 L 4.460938 15.332031 C 4.496094 15.34375 4.53125 15.355469 4.566406 15.363281 L 4.640625 15.382812 L 4.71875 15.402344 L 4.882812 15.441406 C 4.898438 15.445312 4.914062 15.445312 4.925781 15.449219 L 5.015625 15.46875 C 5.042969 15.472656 5.074219 15.480469 5.105469 15.484375 L 5.199219 15.5 C 5.234375 15.507812 5.265625 15.511719 5.296875 15.515625 L 5.398438 15.53125 L 5.503906 15.546875 C 5.519531 15.546875 5.539062 15.550781 5.554688 15.550781 L 5.664062 15.566406 L 5.773438 15.578125 L 5.890625 15.589844 C 5.910156 15.589844 5.925781 15.59375 5.945312 15.59375 L 6.066406 15.605469 L 6.1875 15.613281 L 6.4375 15.628906 L 6.570312 15.636719 C 6.589844 15.636719 6.613281 15.636719 6.632812 15.636719 L 6.769531 15.644531 C 6.792969 15.644531 6.8125 15.644531 6.835938 15.644531 L 6.976562 15.648438 C 7 15.648438 7.023438 15.648438 7.046875 15.648438 L 7.1875 15.652344 C 7.234375 15.652344 7.285156 15.652344 7.332031 15.652344 L 7.40625 15.652344 C 7.523438 15.652344 7.636719 15.648438 7.75 15.644531 L 7.882812 15.640625 C 7.90625 15.640625 7.925781 15.640625 7.949219 15.636719 L 8.078125 15.632812 L 8.203125 15.625 C 8.226562 15.621094 8.246094 15.621094 8.265625 15.621094 L 8.390625 15.609375 C 8.410156 15.609375 8.429688 15.605469 8.449219 15.605469 L 8.566406 15.59375 C 8.585938 15.59375 8.605469 15.589844 8.625 15.589844 L 8.738281 15.574219 C 8.757812 15.574219 8.773438 15.570312 8.792969 15.570312 L 8.902344 15.554688 L 9.113281 15.523438 C 9.144531 15.519531 9.179688 15.511719 9.210938 15.507812 L 9.308594 15.488281 C 9.339844 15.480469 9.371094 15.476562 9.402344 15.46875 L 9.496094 15.449219 L 9.582031 15.429688 C 9.640625 15.417969 9.699219 15.402344 9.75 15.386719 L 9.832031 15.363281 C 9.84375 15.359375 9.855469 15.355469 9.871094 15.351562 L 9.945312 15.328125 L 10.015625 15.304688 C 10.261719 15.21875 10.453125 15.125 10.585938 15.023438 C 10.609375 15.007812 10.621094 14.980469 10.621094 14.953125 L 10.621094 13.890625 C 10.621094 13.789062 10.664062 13.691406 10.734375 13.617188 C 10.808594 13.546875 10.90625 13.507812 11.007812 13.511719 L 11.171875 13.511719 L 11.421875 13.515625 L 11.875 13.515625 C 12.121094 13.515625 12.359375 13.417969 12.53125 13.246094 C 12.707031 13.070312 12.804688 12.835938 12.804688 12.589844 L 12.804688 8.746094 C 12.804688 8.503906 12.707031 8.265625 12.535156 8.09375 C 12.359375 7.921875 12.125 7.824219 11.878906 7.824219 L 11 7.824219 C 10.792969 7.824219 10.621094 7.652344 10.621094 7.445312 Z M 11.816406 8.488281 C 11.929688 8.488281 12.042969 8.535156 12.125 8.617188 C 12.207031 8.699219 12.253906 8.8125 12.253906 8.925781 L 12.253906 12.375 C 12.253906 12.492188 12.207031 12.601562 12.125 12.683594 C 12.042969 12.765625 11.929688 12.8125 11.816406 12.8125 L 11.058594 12.8125 C 10.945312 12.8125 10.832031 12.765625 10.75 12.683594 C 10.667969 12.601562 10.621094 12.492188 10.621094 12.375 L 10.621094 8.925781 C 10.621094 8.8125 10.667969 8.699219 10.75 8.617188 C 10.832031 8.535156 10.945312 8.488281 11.058594 8.488281 Z M 11.816406 8.773438 L 11.058594 8.773438 C 11.019531 8.773438 10.980469 8.789062 10.949219 8.816406 C 10.921875 8.847656 10.90625 8.886719 10.90625 8.925781 L 10.90625 12.375 C 10.90625 12.414062 10.921875 12.457031 10.949219 12.484375 C 10.980469 12.511719 11.019531 12.53125 11.058594 12.53125 L 11.816406 12.53125 C 11.855469 12.53125 11.894531 12.511719 11.921875 12.484375 C 11.953125 12.457031 11.96875 12.414062 11.96875 12.375 L 11.96875 8.925781 C 11.96875 8.886719 11.953125 8.847656 11.921875 8.816406 C 11.894531 8.789062 11.855469 8.773438 11.816406 8.773438 Z M 4.960938 4.425781 C 4.5 4.425781 4.105469 4.757812 4.023438 5.210938 L 4 5.324219 L 3.941406 5.324219 L 3.886719 5.328125 C 3.808594 5.328125 3.734375 5.34375 3.660156 5.371094 C 3.367188 5.472656 3.160156 5.753906 3.160156 6.082031 C 3.160156 6.414062 3.378906 6.707031 3.6875 6.808594 C 3.714844 6.816406 3.746094 6.824219 3.777344 6.832031 C 3.878906 6.851562 3.980469 6.871094 4.082031 6.894531 C 4.164062 6.917969 4.25 6.9375 4.332031 6.960938 C 4.367188 6.96875 4.40625 6.980469 4.441406 6.988281 C 4.492188 7 4.542969 7.015625 4.59375 7.027344 C 5.539062 7.253906 6.734375 7.398438 7.886719 7.359375 L 7.988281 7.355469 L 8.027344 7.449219 C 8.09375 7.625 8.21875 7.773438 8.378906 7.871094 C 8.53125 7.96875 8.628906 8.152344 8.628906 8.324219 L 8.632812 8.34375 C 8.632812 8.414062 8.65625 8.476562 8.691406 8.53125 C 8.761719 8.640625 8.882812 8.714844 9.019531 8.714844 C 9.253906 8.714844 9.410156 8.582031 9.410156 8.382812 L 9.410156 8.292969 C 9.40625 8.257812 9.40625 8.226562 9.40625 8.191406 C 9.40625 7.96875 9.460938 7.746094 9.566406 7.546875 L 9.585938 7.515625 C 9.628906 7.425781 9.65625 7.332031 9.664062 7.230469 L 9.675781 7.132812 L 9.773438 7.109375 C 9.871094 7.082031 9.964844 7.054688 10.0625 7.027344 C 10.144531 7.003906 10.230469 6.976562 10.3125 6.949219 C 10.390625 6.925781 10.472656 6.894531 10.550781 6.867188 L 10.59375 6.851562 C 10.628906 6.839844 10.664062 6.828125 10.695312 6.820312 C 10.753906 6.804688 10.8125 6.792969 10.871094 6.785156 L 10.898438 6.78125 C 10.898438 6.777344 10.902344 6.777344 10.90625 6.777344 C 11.261719 6.710938 11.523438 6.402344 11.523438 6.035156 C 11.523438 5.648438 11.234375 5.332031 10.863281 5.285156 C 10.832031 5.28125 10.800781 5.277344 10.769531 5.277344 C 10.703125 5.277344 10.640625 5.285156 10.578125 5.300781 C 10.515625 5.320312 10.453125 5.34375 10.398438 5.375 L 10.382812 5.386719 L 10.132812 5.449219 L 10.09375 5.320312 C 9.960938 4.910156 9.578125 4.621094 9.136719 4.621094 C 8.585938 4.621094 8.136719 5.070312 8.136719 5.625 C 8.136719 5.65625 8.140625 5.691406 8.144531 5.722656 L 8.25 6.742188 L 8.28125 7.027344 L 8.273438 7.027344 L 8.183594 6.742188 L 7.867188 5.78125 C 7.746094 5.414062 7.398438 5.15625 7.003906 5.15625 C 6.605469 5.15625 6.257812 5.414062 6.136719 5.789062 L 6.101562 5.90625 L 5.808594 5.859375 L 5.863281 5.699219 C 5.902344 5.59375 5.917969 5.488281 5.917969 5.382812 C 5.917969 4.851562 5.492188 4.425781 4.960938 4.425781 Z M 7.851562 1.105469 L 7.816406 1.140625 C 7.5 1.457031 7.203125 1.988281 7.183594 2.3125 C 7.167969 2.640625 7.21875 3.046875 7.21875 3.046875 L 7.019531 3.007812 C 6.933594 2.992188 6.855469 2.972656 6.765625 2.945312 L 6.703125 2.925781 C 6.695312 2.921875 6.683594 2.917969 6.671875 2.914062 L 6.660156 2.910156 L 6.601562 2.886719 L 6.367188 2.804688 L 6.304688 2.78125 C 6.042969 2.699219 5.855469 2.675781 5.640625 2.71875 C 4.882812 2.867188 4.351562 3.332031 4.039062 4.210938 C 3.988281 4.359375 3.953125 4.515625 3.933594 4.679688 C 3.933594 4.683594 3.933594 4.6875 3.933594 4.6875 C 4.152344 4.363281 4.519531 4.152344 4.929688 4.140625 L 4.960938 4.140625 C 5.574219 4.140625 6.082031 4.582031 6.183594 5.164062 L 6.191406 5.195312 L 6.21875 5.167969 C 6.425781 4.988281 6.6875 4.882812 6.972656 4.875 L 7.003906 4.875 C 7.347656 4.875 7.667969 5.023438 7.886719 5.265625 L 7.898438 5.28125 L 7.90625 5.253906 C 8.0625 4.734375 8.539062 4.351562 9.105469 4.339844 L 9.136719 4.339844 C 9.648438 4.339844 10.097656 4.636719 10.304688 5.085938 L 10.3125 5.101562 L 10.324219 5.09375 C 10.40625 5.054688 10.496094 5.027344 10.585938 5.011719 C 10.582031 4.363281 10.46875 3.980469 10.222656 3.578125 L 10.144531 3.453125 C 9.859375 3.054688 9.355469 2.714844 8.859375 2.699219 C 8.617188 2.691406 8.484375 2.730469 8.214844 2.855469 L 8.167969 2.875 C 7.921875 2.988281 7.777344 3.03125 7.542969 3.039062 L 7.410156 3.042969 L 7.398438 2.910156 C 7.351562 2.402344 7.496094 1.957031 7.761719 1.585938 C 7.851562 1.460938 7.941406 1.363281 8.023438 1.289062 L 8.027344 1.28125 L 7.996094 1.246094 L 7.957031 1.207031 C 7.929688 1.175781 7.898438 1.144531 7.871094 1.121094 Z M 5.394531 0.386719 L 5.390625 0.410156 C 5.316406 0.90625 5.519531 1.421875 5.929688 1.910156 C 6.179688 2.210938 6.503906 2.480469 6.777344 2.648438 C 6.820312 2.675781 6.863281 2.699219 6.902344 2.722656 L 6.925781 2.734375 L 6.925781 2.710938 C 6.925781 2.566406 6.914062 2.425781 6.898438 2.296875 C 6.792969 1.378906 6.339844 0.808594 5.410156 0.394531 Z M 5.394531 0.386719 "/>
</g>
</svg>
